<?xml version="1.0" encoding="UTF-8"?>
<svg id="Camada_2" data-name="Camada 2" xmlns="http://www.w3.org/2000/svg" viewBox="0 0 308.88 58.35">
  <defs>
    <style>
      .cls-1 {
        fill: #fff;
        stroke-width: 0px;
      }
    </style>
  </defs>
  <g id="Camada_1-2" data-name="Camada 1">
    <g>
      <path class="cls-1" d="M38.36,24.86c-.45-.16-.6-.71-.65-.86-.1-.34-.05-.67.14-1.01.05-.1.24-.32.58-.68.34-.36.86-.72,1.58-1.08.72-.36,1.67-.64,2.84-.83,1.18-.19,2.65-.17,4.43.07.91.14,1.92.29,3.02.43.14-.24.29-.48.43-.72.14-.24.29-.48.43-.72,1.3-2.16,2.58-4.09,3.85-5.8,1.27-1.7,2.53-3.25,3.78-4.64-1.54-.53-3.05-1.13-4.54-1.8-1.49-.67-2.93-1.34-4.32-2.02-2.74-1.34-5.32-2.1-7.74-2.27-2.42-.17-4.4.28-5.94,1.33-1.2.77-2.08,1.76-2.63,2.99-.55,1.22-.68,2.44-.4,3.64.53,2.21,2.16,3.5,4.9,3.89.38.05.71.23.97.54.26.31.35.66.25,1.04-.05.38-.23.7-.54.94-.31.24-.66.34-1.04.29-1.92-.24-3.52-.89-4.79-1.94-1.27-1.06-2.1-2.42-2.48-4.1-.38-1.82-.18-3.62.61-5.4.79-1.78,2.03-3.22,3.71-4.32C36.85.48,39.29-.12,42.14.02c2.86.14,5.92,1.01,9.18,2.59,1.1.53,2.5,1.19,4.18,1.98,1.68.79,3.53,1.5,5.54,2.12,2.88-2.74,5.56-4.55,8.03-5.44,2.47-.89,4.57-1.14,6.3-.76,1.1.24,1.98.7,2.63,1.37.65.67,1.02,1.46,1.12,2.38.1,1.06-.2,2.04-.9,2.95-.7.91-1.74,1.66-3.13,2.23-2.02.91-4.15,1.34-6.41,1.3-2.26-.05-4.54-.38-6.84-1.01-1.3,1.34-2.64,2.9-4.03,4.68-1.39,1.78-2.81,3.86-4.25,6.26l-.22.43c1.49.24,3.01.43,4.57.58,1.56.14,3.04.18,4.43.11,1.39-.07,2.65-.31,3.78-.72,1.13-.41,2.05-1.04,2.77-1.91.24-.29.55-.44.94-.47.38-.02.72.08,1.01.32.29.24.44.55.47.94.02.38-.08.72-.32,1.01-1.01,1.2-2.24,2.08-3.71,2.63-1.46.55-3.05.88-4.75.97-1.7.1-3.48.05-5.33-.14-1.85-.19-3.66-.43-5.44-.72-.34.62-.67,1.27-1.01,1.94-.34.67-.7,1.39-1.08,2.16-1.06,2.11-2.19,4.31-3.38,6.59-1.2,2.28-2.52,4.52-3.96,6.73-1.44,2.21-3.04,4.32-4.79,6.34-1.75,2.02-3.68,3.82-5.8,5.4-2.35,1.73-4.72,2.99-7.09,3.78s-4.69,1.19-6.95,1.19c-3.07,0-5.89-.62-8.46-1.87-2.57-1.25-4.64-2.95-6.23-5.11-1.58-2.11-2.54-4.57-2.88-7.38-.1-.85-.14-1.7-.13-2.55.06-3.08-.04-5.28,1.06-5.84.77-.39,2.11,0,2.74.86,1.14,1.56-1.24,3.4-.83,7.06.26,2.35,1.04,4.39,2.34,6.12.96,1.3,2.29,2.47,4,3.53,1.7,1.06,3.65,1.74,5.83,2.05,2.18.31,4.54.18,7.06-.4s5.1-1.85,7.74-3.82c1.97-1.44,3.78-3.13,5.44-5.08,1.66-1.94,3.17-3.97,4.54-6.08,1.37-2.11,2.63-4.27,3.78-6.48,1.15-2.21,2.23-4.32,3.24-6.34.29-.58.58-1.13.86-1.66.29-.53.55-1.06.79-1.58-.38-.1-.75-.15-1.08-.18-.34-.02-.67-.06-1.01-.11-1.3-.19-2.37-.23-3.2-.11-.84.12-1.52.28-2.05.47-.58.24-1.03.53-1.37.86-.1.12-.26.29-.5.43-.23.13-.62.36-1.01.22ZM64.64,7.72c1.68.34,3.35.48,5,.43,1.66-.05,3.2-.41,4.64-1.08.91-.38,1.54-.8,1.87-1.26.34-.46.48-.83.43-1.12-.1-.62-.65-1.06-1.66-1.3-1.01-.24-2.41-.1-4.21.43-1.8.53-3.88,1.8-6.23,3.82l.14.07Z"/>
      <path class="cls-1" d="M47.07,47.04c.1-.1.14-.17.14-.22.1-1.15.36-2.24.79-3.28.43-1.03.94-2.03,1.51-2.99,1.06-1.78,2.23-3.36,3.53-4.75.91-.96,1.87-1.8,2.88-2.52,1.01-.72,2.11-1.32,3.31-1.8,1.06-.43,2.11-.69,3.17-.79,1.06-.1,2.14.05,3.24.43,2.45.86,3.98,2.54,4.61,5.04,0,.1.02.19.07.29.19-.19.31-.34.36-.43.62-.82,1.24-1.62,1.84-2.41.6-.79,1.21-1.6,1.84-2.41.38-.43.83-.64,1.33-.61.5.02.9.25,1.19.68.14.24.23.54.25.9.02.36-.08.68-.32.97-.38.43-.73.86-1.04,1.3-.31.43-.64.86-.97,1.3-1.2,1.63-2.34,3.3-3.42,5-1.08,1.7-2.05,3.47-2.92,5.29-.38.82-.72,1.62-1.01,2.41s-.5,1.62-.65,2.48c-.1.38-.14.76-.14,1.12s.05.73.14,1.12c.38,1.34,1.27,1.9,2.66,1.66.91-.14,1.72-.44,2.41-.9.69-.46,1.33-1.02,1.91-1.69.53-.58,1-1.2,1.4-1.87.41-.67.78-1.37,1.12-2.09.1-.19.18-.37.25-.54.07-.17.2-.3.4-.4.72-.34,1.34-.26,1.87.22.58.48.7,1.08.36,1.8-.67,1.68-1.54,3.19-2.59,4.54-.62.77-1.3,1.45-2.02,2.05-.72.6-1.56,1.09-2.52,1.48-.72.29-1.45.49-2.2.61-.75.12-1.5.06-2.27-.18-1.87-.48-3.12-1.7-3.74-3.67-.1-.38-.17-.7-.22-.94-.24.24-.46.44-.65.61-.19.17-.38.37-.58.61-1.49,1.49-3.22,2.47-5.18,2.95-1.06.24-2.1.29-3.13.14-1.03-.14-1.99-.48-2.88-1.01-.89-.53-1.66-1.22-2.3-2.09-.65-.86-1.12-1.87-1.4-3.02-.1-.24-.14-.47-.14-.68s-.1-.44-.29-.68v-3.02ZM65.15,45.31l.22-.22c.82-1.58,1.44-3.17,1.87-4.75.19-.91.26-1.85.22-2.81-.1-.77-.34-1.42-.72-1.94-1.2-1.54-2.78-2.11-4.75-1.73-1.06.19-2.02.54-2.88,1.04-.86.5-1.7,1.09-2.52,1.76-2.3,2.02-4.13,4.51-5.47,7.49-.43.96-.73,1.93-.9,2.92-.17.98-.16,2,.04,3.06.29,1.63,1.04,2.87,2.27,3.71,1.22.84,2.65,1,4.28.47,1.73-.58,3.19-1.63,4.39-3.17.34-.48.61-.97.83-1.48s.37-1.04.47-1.62c.14-1.1-.31-1.66-1.37-1.66h-.65c-.91-.14-1.37-.67-1.37-1.58s.48-1.37,1.44-1.37h.65c1.2-.05,2.26.38,3.17,1.3l.65.65.14-.07Z"/>
      <path class="cls-1" d="M107.41,3.69h.72c.29.05.55.17.79.36.24.19.41.43.5.72.19.77.02,1.32-.5,1.66-.67.38-1.25.86-1.73,1.44-.48.58-.98,1.15-1.51,1.73-1.3,1.39-2.54,2.84-3.74,4.36-1.2,1.51-2.35,3.04-3.46,4.57-1.39,1.87-2.73,3.78-4,5.72-1.27,1.94-2.48,3.92-3.64,5.94l-.86,1.51v.29c.19,0,.31-.02.36-.07,1.2-.62,2.47-.94,3.82-.94,2.78,0,4.85,1.15,6.19,3.46.38.67.7,1.38.94,2.12.24.74.41,1.52.5,2.34.24,1.87.16,3.67-.25,5.4-.41,1.73-1.07,3.41-1.98,5.04-1.58,2.83-3.74,5.11-6.48,6.84-.96.62-1.97,1.1-3.02,1.44-1.06.34-2.16.48-3.31.43-2.06-.1-3.82-.82-5.26-2.16-.91-.86-1.54-2.04-1.87-3.53l-.22-1.08c-.14,0-.24.05-.29.14-.05.1-.12.19-.22.29-.43.53-.89,1.02-1.37,1.48-.48.46-.98.88-1.51,1.26-1.77,1.25-3.67,1.85-5.69,1.8-.62-.05-1.07-.32-1.33-.83-.26-.5-.23-1.02.11-1.55.29-.43.7-.65,1.22-.65,1.34,0,2.51-.31,3.49-.94.98-.62,1.88-1.42,2.7-2.38.82-.91,1.54-1.87,2.16-2.88.62-1.01,1.2-2.06,1.73-3.17.67-1.25,1.31-2.52,1.91-3.82.6-1.3,1.24-2.57,1.91-3.82,1.1-2.21,2.27-4.37,3.49-6.48,1.22-2.11,2.51-4.22,3.85-6.34,1.01-1.54,2.04-3.06,3.1-4.57,1.06-1.51,2.14-3.01,3.24-4.5,1.25-1.68,2.54-3.3,3.89-4.86,1.34-1.56,2.78-3.04,4.32-4.43.29-.24.58-.47.86-.68.29-.22.55-.44.79-.68h-.36ZM86.39,39.19c-.1.19-.24.43-.43.72l-1.94,3.89c-.19.38-.37.78-.54,1.19-.17.41-.3.83-.4,1.26-.38,1.68-.5,3.26-.36,4.75.1,1.54.62,2.63,1.58,3.28.96.65,2.06.95,3.31.9.91-.05,1.76-.25,2.56-.61s1.55-.8,2.27-1.33c1.25-.91,2.3-1.93,3.17-3.06.86-1.13,1.61-2.39,2.23-3.78.77-1.63,1.2-3.38,1.3-5.26.05-.72,0-1.43-.14-2.12-.14-.7-.34-1.38-.58-2.05-.48-1.25-1.16-2.06-2.05-2.45-.89-.38-1.93-.46-3.13-.22-.82.14-1.49.46-2.02.94-.71.64-1,1.19-1.37,1.73-.52.77-1.48,1.73-3.38,2.45l-.07-.22Z"/>
      <path class="cls-1" d="M110.79,31.2c1.01.1,1.91.35,2.7.76.79.41,1.43,1.04,1.91,1.91.53,1.06.72,2.26.58,3.6-.24,1.15-.64,2.23-1.19,3.24-.55,1.01-1.16,1.99-1.84,2.95-.67.86-1.32,1.72-1.94,2.56-.62.84-1.25,1.74-1.87,2.7-.67,1.01-1.27,2.16-1.8,3.46-.43.58-.58,1.22-.43,1.94.1.62.43.89,1.01.79.48,0,1.01-.12,1.58-.36.62-.24,1.2-.53,1.73-.86.53-.33,1.03-.7,1.51-1.08.82-.72,1.57-1.5,2.27-2.34.7-.84,1.38-1.69,2.05-2.56.1-.1.18-.19.25-.29.07-.1.16-.19.25-.29.29-.38.71-.55,1.26-.5.55.05.95.29,1.19.72.33.62.29,1.25-.14,1.87-.91,1.39-1.94,2.69-3.1,3.89-.58.58-1.18,1.14-1.8,1.69-.62.55-1.27,1.04-1.94,1.48-.62.38-1.26.73-1.91,1.04-.65.31-1.36.52-2.12.61-.53.1-1.06.12-1.58.07-.53-.05-1.06-.22-1.58-.5-1.06-.62-1.73-1.58-2.02-2.88-.14-.67-.13-1.36.04-2.05.17-.7.4-1.36.68-1.98.58-1.3,1.26-2.54,2.05-3.74.79-1.2,1.64-2.38,2.56-3.53.53-.77,1.07-1.51,1.62-2.23.55-.72,1.04-1.49,1.48-2.3.19-.38.36-.77.5-1.15.14-.38.24-.79.29-1.22.14-1.49-.53-2.3-2.02-2.45-.53-.1-1.02-.05-1.48.14-.46.19-.88.41-1.26.65-.1.1-.18.17-.25.22-.07.05-.16.12-.25.22-.86.58-1.61.48-2.23-.29-.24-.38-.32-.78-.25-1.19.07-.41.28-.73.61-.97,1.68-1.3,3.43-1.92,5.26-1.87l-.36.14ZM115.91,28.17c-.62.05-1.16-.19-1.62-.72-.46-.53-.64-1.06-.54-1.58.1-.72.34-1.3.72-1.73.38-.43.91-.62,1.58-.58.67.05,1.22.3,1.66.76.43.46.65,1.02.65,1.69,0,.72-.26,1.3-.79,1.73-.53.43-1.06.6-1.58.5l-.07-.07ZM115.33,25.65c.05.53.26.86.65,1.01.38,0,.72-.22,1.01-.65-.1-.58-.43-.86-1.01-.86-.1.05-.19.11-.29.18-.1.07-.19.16-.29.25l-.07.07Z"/>
      <path class="cls-1" d="M134.22,47.04c.1-.1.14-.17.14-.22.1-1.15.36-2.24.79-3.28.43-1.03.94-2.03,1.51-2.99,1.06-1.78,2.23-3.36,3.53-4.75.91-.96,1.87-1.8,2.88-2.52,1.01-.72,2.11-1.32,3.31-1.8,1.06-.43,2.11-.69,3.17-.79,1.06-.1,2.14.05,3.24.43,2.45.86,3.98,2.54,4.61,5.04,0,.1.02.19.07.29.19-.19.31-.34.36-.43.62-.82,1.24-1.62,1.84-2.41.6-.79,1.21-1.6,1.84-2.41.38-.43.83-.64,1.33-.61.5.02.9.25,1.19.68.14.24.23.54.25.9.02.36-.08.68-.32.97-.38.43-.73.86-1.04,1.3-.31.43-.64.86-.97,1.3-1.2,1.63-2.34,3.3-3.42,5-1.08,1.7-2.05,3.47-2.92,5.29-.38.82-.72,1.62-1.01,2.41s-.5,1.62-.65,2.48c-.1.38-.14.76-.14,1.12s.05.73.14,1.12c.38,1.34,1.27,1.9,2.66,1.66.91-.14,1.72-.44,2.41-.9.69-.46,1.33-1.02,1.91-1.69.53-.58,1-1.2,1.4-1.87.41-.67.78-1.37,1.12-2.09.1-.19.18-.37.25-.54.07-.17.2-.3.4-.4.72-.34,1.34-.26,1.87.22.58.48.7,1.08.36,1.8-.67,1.68-1.54,3.19-2.59,4.54-.62.77-1.3,1.45-2.02,2.05-.72.6-1.56,1.09-2.52,1.48-.72.29-1.45.49-2.2.61-.75.12-1.5.06-2.27-.18-1.87-.48-3.12-1.7-3.74-3.67-.1-.38-.17-.7-.22-.94-.24.24-.46.44-.65.61-.19.17-.38.37-.58.61-1.49,1.49-3.22,2.47-5.18,2.95-1.06.24-2.1.29-3.13.14-1.03-.14-1.99-.48-2.88-1.01-.89-.53-1.66-1.22-2.3-2.09-.65-.86-1.12-1.87-1.4-3.02-.1-.24-.14-.47-.14-.68s-.1-.44-.29-.68v-3.02ZM152.3,45.31l.22-.22c.82-1.58,1.44-3.17,1.87-4.75.19-.91.26-1.85.22-2.81-.1-.77-.34-1.42-.72-1.94-1.2-1.54-2.78-2.11-4.75-1.73-1.06.19-2.02.54-2.88,1.04-.86.5-1.7,1.09-2.52,1.76-2.3,2.02-4.13,4.51-5.47,7.49-.43.96-.73,1.93-.9,2.92-.17.98-.16,2,.04,3.06.29,1.63,1.04,2.87,2.27,3.71,1.22.84,2.65,1,4.28.47,1.73-.58,3.19-1.63,4.39-3.17.34-.48.61-.97.83-1.48s.37-1.04.47-1.62c.14-1.1-.31-1.66-1.37-1.66h-.65c-.91-.14-1.37-.67-1.37-1.58s.48-1.37,1.44-1.37h.65c1.2-.05,2.26.38,3.17,1.3l.65.65.14-.07Z"/>
      <path class="cls-1" d="M173.32,41.42c-.1.14-.18.26-.25.36-.07.1-.16.19-.25.29-.77,1.1-1.54,2.17-2.3,3.2-.77,1.03-1.51,2.1-2.23,3.2-.58.82-1.1,1.67-1.58,2.56-.48.89-.86,1.81-1.15,2.77-.24.82-.34,1.56-.29,2.23.05.38-.06.73-.32,1.04-.26.31-.59.49-.97.54-.91.14-1.49-.19-1.73-1.01-.05-.24-.08-.46-.11-.65-.02-.19-.01-.41.04-.65.14-1.44.55-2.88,1.22-4.32.53-1.25,1.14-2.42,1.84-3.53.7-1.1,1.43-2.21,2.2-3.31l5.4-7.56c.24-.34.42-.68.54-1.04.12-.36.23-.73.32-1.12.1-.53.02-.97-.22-1.33-.24-.36-.62-.59-1.15-.68-.96-.19-1.9-.07-2.81.36-.29.14-.58.3-.86.47-.29.17-.58.35-.86.54-.53.34-1.02.42-1.48.25-.46-.17-.78-.52-.97-1.04-.24-.62-.1-1.13.43-1.51,1.54-1.15,3.14-1.82,4.82-2.02,1.25-.14,2.42.02,3.53.5,1.2.58,1.99,1.51,2.38,2.81.05.1.07.24.07.43l.07.07c.14-.05.28-.11.4-.18.12-.07.23-.16.32-.25.62-.48,1.26-.89,1.91-1.22.65-.33,1.36-.6,2.12-.79.82-.19,1.6-.28,2.34-.25.74.02,1.48.23,2.2.61,1.06.53,1.75,1.32,2.09,2.38.1.19.17.36.22.5.19,0,.35-.05.47-.14.12-.1.23-.19.32-.29.62-.53,1.26-.98,1.91-1.37.65-.38,1.38-.69,2.2-.94,2.21-.58,4.03-.02,5.47,1.66.48.67.77,1.39.86,2.16.1.82.04,1.61-.18,2.38-.22.77-.52,1.51-.9,2.23-.48,1.01-1.01,1.98-1.58,2.92-.58.94-1.18,1.88-1.8,2.84-.43.67-.86,1.31-1.3,1.91-.43.6-.84,1.24-1.22,1.91-.38.62-.74,1.25-1.08,1.87-.34.62-.58,1.3-.72,2.02,0,.05-.01.08-.04.11-.02.02-.04.06-.04.11-.1.53-.05.9.14,1.12.19.22.58.32,1.15.32s1.12-.11,1.62-.32,1-.47,1.48-.76c1.92-1.15,3.65-2.59,5.18-4.32.86-.91,1.56-1.85,2.09-2.81.29-.53.71-.8,1.26-.83.55-.02,1,.18,1.33.61.43.58.46,1.18.07,1.8-.24.43-.49.86-.76,1.3-.26.43-.56.84-.9,1.22-1.78,2.21-3.84,4.03-6.19,5.47-.77.48-1.55.88-2.34,1.19-.79.31-1.65.52-2.56.61-1.25.1-2.34-.18-3.28-.83s-1.4-1.67-1.4-3.06c0-.67.08-1.3.25-1.87.17-.58.37-1.15.61-1.73.33-.77.71-1.5,1.12-2.2.41-.7.83-1.38,1.26-2.05.77-1.1,1.51-2.23,2.23-3.38s1.44-2.3,2.16-3.46c.58-.91,1.01-1.9,1.3-2.95.29-1.2-.1-1.94-1.15-2.23-.34-.1-.65-.1-.94,0-.43.1-.84.24-1.22.43-.38.19-.77.41-1.15.65-.77.53-1.49,1.12-2.16,1.76-.67.65-1.34,1.31-2.02,1.98-.82.86-1.57,1.79-2.27,2.77-.7.98-1.4,1.96-2.12,2.92-.62.86-1.22,1.73-1.8,2.59-.58.86-1.15,1.73-1.73,2.59-.48.67-.9,1.38-1.26,2.12-.36.74-.66,1.52-.9,2.34-.1.38-.17.74-.22,1.08-.05.34-.05.7,0,1.08.05.48-.08.86-.4,1.15-.31.29-.66.43-1.04.43-.43,0-.82-.14-1.15-.43-.34-.29-.5-.65-.5-1.08v-1.19c0-.41.05-.8.14-1.19.24-.91.53-1.75.86-2.52.48-1.1,1.03-2.17,1.66-3.2.62-1.03,1.27-2.05,1.94-3.06.53-.72,1.02-1.44,1.48-2.16.46-.72.95-1.44,1.48-2.16.19-.24.38-.49.58-.76.19-.26.38-.52.58-.76.38-.48.72-.97,1.01-1.48.29-.5.55-1.04.79-1.62.1-.19.19-.48.29-.86.24-1.15-.29-1.77-1.58-1.87-.67-.05-1.3.02-1.87.22-.58.19-1.13.46-1.66.79-1.58.96-2.69,2.26-3.31,3.89-.29.72-.43,1.46-.43,2.23,0,.62.19,1.1.58,1.44.34.29.5.65.5,1.08,0,.67-.29,1.15-.86,1.44-.58.24-1.13.14-1.66-.29-.67-.48-1.1-1.13-1.3-1.94-.05-.14-.08-.29-.11-.43-.02-.14-.08-.34-.18-.58v-.29Z"/>
      <path class="cls-1" d="M215.27,30.76c4.2.94,6.58.56,8,0,1.61-.64,2.41-.76,4-1,1.69-.26,1.92-.08,2,0,.93.89-1.77,3.42-1.88,7.84-.03,1.14.19,1.93-.14,3.46-.24,1.1-.6,2.21-1.08,3.31-.91,2.11-2.05,4.03-3.42,5.76-1.37,1.73-2.94,3.31-4.72,4.75-1.87,1.54-3.96,2.54-6.26,3.02-.96.24-1.9.32-2.81.25-.91-.07-1.8-.3-2.66-.68-1.78-.77-3.02-2.11-3.74-4.03-.34-.86-.53-1.74-.58-2.63-.05-.89-.02-1.79.07-2.7.24-1.82.73-3.52,1.48-5.08,1.14-2.4,1.62-2.43,2.7-4.5,2.3-4.44,1.33-7.18,4.04-9.78.69-.66,1.32-1.02,2-1,1.83.06,2.92,2.79,3,3ZM209.32,39.69s0,0,0,0c0,0,0,0,0,0-.02.02-.04.05-.08.08-.08.07-.15.12-.16.12-.94.63-2.16,3.24-2.16,3.24-.74,1.57-1.12,2.35-1.4,3.31-.24.82-.42,1.62-.54,2.41-.12.79-.08,1.6.11,2.41.33,1.39.95,2.38,1.84,2.95.89.58,1.88.82,2.99.72,1.01-.1,1.98-.33,2.92-.72.94-.38,1.81-.89,2.63-1.51,3.31-2.45,5.88-5.59,7.7-9.43.38-.86.7-1.75.94-2.66.24-.91.31-1.85.22-2.81-.07-.77-.29-1.44-.67-2.01-.57-.86-1.33-1.26-1.7-1.45-1.68-.87-5.01-1.24-7.65.4,0,0-1.49.92-4.95,4.93Z"/>
      <path class="cls-1" d="M245.54,24.14c.67.58,1.06,1.07,1.15,1.48.1.41-.05,1-.43,1.76-.29.58-.59,1.15-.9,1.73-.31.58-.64,1.15-.97,1.73-.19.34-.31.67-.36,1.01-.05.34-.1.7-.14,1.08,0,.1.05.24.14.43.24.14.49.28.76.4.26.12.52.25.76.4.91.58,1.56,1.3,1.94,2.16.38.86.38,1.87,0,3.02-.24.67-.54,1.32-.9,1.94-.36.62-.78,1.22-1.26,1.8-1.39,1.73-2.98,3.41-4.75,5.04-.58.53-1.14,1.04-1.69,1.55-.55.5-1.02,1.09-1.4,1.76-.19.29-.36.58-.5.86s-.22.62-.22,1.01c0,.62.26,1.03.79,1.22.48.19,1.01.26,1.58.22.96-.14,1.84-.43,2.63-.86.79-.43,1.55-.94,2.27-1.51,1.06-.82,2-1.69,2.84-2.63.84-.94,1.62-1.96,2.34-3.06.38-.58.89-.84,1.51-.79.53.05.94.26,1.22.65.29.38.34.84.14,1.37l-.22.43c-1.01,1.54-2.12,2.95-3.35,4.25s-2.6,2.42-4.14,3.38c-.82.53-1.63.96-2.45,1.3-.82.34-1.7.55-2.66.65-1.34.14-2.52-.07-3.53-.65-1.06-.58-1.73-1.46-2.02-2.66-.19-.72-.21-1.42-.04-2.09.17-.67.42-1.34.76-2.02.38-.72.84-1.39,1.37-2.02.53-.62,1.1-1.2,1.73-1.73,1.01-.96,1.99-1.93,2.95-2.92.96-.98,1.85-2.03,2.66-3.13.34-.43.62-.89.86-1.37.24-.48.41-1.01.5-1.58-.1-.29-.26-.52-.5-.68-.24-.17-.48-.3-.72-.4-.14-.1-.3-.16-.47-.18-.17-.02-.32-.08-.47-.18-.14-.1-.29-.19-.43-.29-.14-.1-.31-.19-.5-.29-.19.19-.31.34-.36.43-1.39,2.11-2.86,4.17-4.39,6.16-1.54,1.99-3.14,3.9-4.82,5.72-.86.96-1.73,1.9-2.59,2.81-.86.91-1.75,1.82-2.66,2.74-.77.72-1.54,1.43-2.3,2.12-.77.7-1.56,1.38-2.38,2.05-.38.29-.7.46-.94.5-.82.24-1.42-.05-1.8-.86-.33-.72-.19-1.34.43-1.87l2.38-2.16c.19-.14.37-.29.54-.43.17-.14.35-.31.54-.5.82-.82,1.63-1.63,2.45-2.45.82-.82,1.63-1.66,2.45-2.52,1.58-1.63,3.1-3.36,4.54-5.18.82-.96,1.6-1.94,2.34-2.95.74-1.01,1.48-2.02,2.2-3.02.67-.91,1.3-1.82,1.87-2.74.58-.91,1.15-1.85,1.73-2.81.24-.34.42-.68.54-1.04.12-.36.28-.73.47-1.12.19-.38.37-.78.54-1.19.17-.41.37-.8.61-1.19.24-.53.55-.98.94-1.37.38-.38.91-.62,1.58-.72h.22Z"/>
      <path class="cls-1" d="M259.07,31.2c1.01.1,1.91.35,2.7.76.79.41,1.43,1.04,1.91,1.91.53,1.06.72,2.26.58,3.6-.24,1.15-.64,2.23-1.19,3.24-.55,1.01-1.16,1.99-1.84,2.95-.67.86-1.32,1.72-1.94,2.56-.62.84-1.25,1.74-1.87,2.7-.67,1.01-1.27,2.16-1.8,3.46-.43.58-.58,1.22-.43,1.94.1.62.43.89,1.01.79.48,0,1.01-.12,1.58-.36.62-.24,1.2-.53,1.73-.86.53-.33,1.03-.7,1.51-1.08.82-.72,1.57-1.5,2.27-2.34.7-.84,1.38-1.69,2.05-2.56.1-.1.18-.19.25-.29.07-.1.16-.19.25-.29.29-.38.71-.55,1.26-.5.55.05.95.29,1.19.72.33.62.29,1.25-.14,1.87-.91,1.39-1.94,2.69-3.1,3.89-.58.58-1.18,1.14-1.8,1.69-.62.55-1.27,1.04-1.94,1.48-.62.38-1.26.73-1.91,1.04-.65.31-1.36.52-2.12.61-.53.1-1.06.12-1.58.07-.53-.05-1.06-.22-1.58-.5-1.06-.62-1.73-1.58-2.02-2.88-.14-.67-.13-1.36.04-2.05.17-.7.4-1.36.68-1.98.58-1.3,1.26-2.54,2.05-3.74.79-1.2,1.64-2.38,2.56-3.53.53-.77,1.07-1.51,1.62-2.23.55-.72,1.04-1.49,1.48-2.3.19-.38.36-.77.5-1.15.14-.38.24-.79.29-1.22.14-1.49-.53-2.3-2.02-2.45-.53-.1-1.02-.05-1.48.14-.46.19-.88.41-1.26.65-.1.1-.18.17-.25.22-.07.05-.16.12-.25.22-.86.58-1.61.48-2.23-.29-.24-.38-.32-.78-.25-1.19.07-.41.28-.73.61-.97,1.68-1.3,3.43-1.92,5.26-1.87l-.36.14ZM264.18,28.17c-.62.05-1.16-.19-1.62-.72-.46-.53-.64-1.06-.54-1.58.1-.72.34-1.3.72-1.73.38-.43.91-.62,1.58-.58.67.05,1.22.3,1.66.76.43.46.65,1.02.65,1.69,0,.72-.26,1.3-.79,1.73-.53.43-1.06.6-1.58.5l-.07-.07ZM263.61,25.65c.05.53.26.86.65,1.01.38,0,.72-.22,1.01-.65-.1-.58-.43-.86-1.01-.86-.1.05-.19.11-.29.18-.1.07-.19.16-.29.25l-.07.07Z"/>
      <path class="cls-1" d="M277,41.42c-.1.14-.18.26-.25.36-.07.1-.16.19-.25.29-.77,1.1-1.54,2.17-2.3,3.2-.77,1.03-1.51,2.1-2.23,3.2-.58.82-1.1,1.67-1.58,2.56-.48.89-.86,1.81-1.15,2.77-.24.82-.34,1.56-.29,2.23.05.38-.06.73-.32,1.04-.26.31-.59.49-.97.54-.91.14-1.49-.19-1.73-1.01-.05-.24-.08-.46-.11-.65-.02-.19-.01-.41.04-.65.14-1.44.55-2.88,1.22-4.32.53-1.25,1.14-2.42,1.84-3.53.7-1.1,1.43-2.21,2.2-3.31l5.4-7.56c.24-.34.42-.68.54-1.04.12-.36.23-.73.32-1.12.1-.53.02-.97-.22-1.33-.24-.36-.62-.59-1.15-.68-.96-.19-1.9-.07-2.81.36-.29.14-.58.3-.86.47-.29.17-.58.35-.86.54-.53.34-1.02.42-1.48.25-.46-.17-.78-.52-.97-1.04-.24-.62-.1-1.13.43-1.51,1.54-1.15,3.14-1.82,4.82-2.02,1.25-.14,2.42.02,3.53.5,1.2.58,1.99,1.51,2.38,2.81.05.1.07.24.07.43l.07.07c.14-.05.28-.11.4-.18.12-.07.23-.16.32-.25.62-.48,1.26-.89,1.91-1.22.65-.33,1.36-.6,2.12-.79.82-.19,1.6-.28,2.34-.25.74.02,1.48.23,2.2.61,1.06.53,1.75,1.32,2.09,2.38.1.19.17.36.22.5.19,0,.35-.05.47-.14.12-.1.23-.19.32-.29.62-.53,1.26-.98,1.91-1.37.65-.38,1.38-.69,2.2-.94,2.21-.58,4.03-.02,5.47,1.66.48.67.77,1.39.86,2.16.1.82.04,1.61-.18,2.38-.22.77-.52,1.51-.9,2.23-.48,1.01-1.01,1.98-1.58,2.92-.58.94-1.18,1.88-1.8,2.84-.43.67-.86,1.31-1.3,1.91-.43.6-.84,1.24-1.22,1.91-.38.62-.74,1.25-1.08,1.87-.34.62-.58,1.3-.72,2.02,0,.05-.01.08-.04.11-.02.02-.04.06-.04.11-.1.53-.05.9.14,1.12.19.22.58.32,1.15.32s1.12-.11,1.62-.32,1-.47,1.48-.76c1.92-1.15,3.65-2.59,5.18-4.32.86-.91,1.56-1.85,2.09-2.81.29-.53.71-.8,1.26-.83.55-.02,1,.18,1.33.61.43.58.46,1.18.07,1.8-.24.43-.49.86-.76,1.3-.26.43-.56.84-.9,1.22-1.78,2.21-3.84,4.03-6.19,5.47-.77.48-1.55.88-2.34,1.19-.79.31-1.65.52-2.56.61-1.25.1-2.34-.18-3.28-.83s-1.4-1.67-1.4-3.06c0-.67.08-1.3.25-1.87.17-.58.37-1.15.61-1.73.33-.77.71-1.5,1.12-2.2.41-.7.83-1.38,1.26-2.05.77-1.1,1.51-2.23,2.23-3.38s1.44-2.3,2.16-3.46c.58-.91,1.01-1.9,1.3-2.95.29-1.2-.1-1.94-1.15-2.23-.34-.1-.65-.1-.94,0-.43.1-.84.24-1.22.43-.38.19-.77.41-1.15.65-.77.53-1.49,1.12-2.16,1.76-.67.65-1.34,1.31-2.02,1.98-.82.86-1.57,1.79-2.27,2.77-.7.98-1.4,1.96-2.12,2.92-.62.86-1.22,1.73-1.8,2.59-.58.86-1.15,1.73-1.73,2.59-.48.67-.9,1.38-1.26,2.12-.36.74-.66,1.52-.9,2.34-.1.38-.17.74-.22,1.08-.05.34-.05.7,0,1.08.05.48-.08.86-.4,1.15-.31.29-.66.43-1.04.43-.43,0-.82-.14-1.15-.43-.34-.29-.5-.65-.5-1.08v-1.19c0-.41.05-.8.14-1.19.24-.91.53-1.75.86-2.52.48-1.1,1.03-2.17,1.66-3.2.62-1.03,1.27-2.05,1.94-3.06.53-.72,1.02-1.44,1.48-2.16.46-.72.95-1.44,1.48-2.16.19-.24.38-.49.58-.76.19-.26.38-.52.58-.76.38-.48.72-.97,1.01-1.48.29-.5.55-1.04.79-1.62.1-.19.19-.48.29-.86.24-1.15-.29-1.77-1.58-1.87-.67-.05-1.3.02-1.87.22-.58.19-1.13.46-1.66.79-1.58.96-2.69,2.26-3.31,3.89-.29.72-.43,1.46-.43,2.23,0,.62.19,1.1.58,1.44.34.29.5.65.5,1.08,0,.67-.29,1.15-.86,1.44-.58.24-1.13.14-1.66-.29-.67-.48-1.1-1.13-1.3-1.94-.05-.14-.08-.29-.11-.43-.02-.14-.08-.34-.18-.58v-.29Z"/>
    </g>
  </g>
</svg>